<?xml version="1.0" encoding="UTF-8" standalone="no"?>
<!-- Created with Inkscape (http://www.inkscape.org/) -->

<svg
   xmlns:dc="http://purl.org/dc/elements/1.1/"
   xmlns:cc="http://creativecommons.org/ns#"
   xmlns:rdf="http://www.w3.org/1999/02/22-rdf-syntax-ns#"
   xmlns:svg="http://www.w3.org/2000/svg"
   xmlns="http://www.w3.org/2000/svg"
   xmlns:sodipodi="http://sodipodi.sourceforge.net/DTD/sodipodi-0.dtd"
   xmlns:inkscape="http://www.inkscape.org/namespaces/inkscape"
   width="210mm"
   height="297mm"
   viewBox="0 0 744.09448819 1052.3622047"
   id="svg2"
   version="1.1"
   inkscape:version="0.91 r13725"
   sodipodi:docname="logo3.svg">
  <defs
     id="defs4" />
  <sodipodi:namedview
     id="base"
     pagecolor="#ffffff"
     bordercolor="#666666"
     borderopacity="1.0"
     inkscape:pageopacity="0.0"
     inkscape:pageshadow="2"
     inkscape:zoom="0.98994949"
     inkscape:cx="161.76195"
     inkscape:cy="549.8141"
     inkscape:document-units="px"
     inkscape:current-layer="g4263"
     showgrid="false"
     inkscape:snap-global="false"
     inkscape:window-width="1024"
     inkscape:window-height="571"
     inkscape:window-x="0"
     inkscape:window-y="0"
     inkscape:window-maximized="1" />
  <metadata
     id="metadata7">
    <rdf:RDF>
      <cc:Work
         rdf:about="">
        <dc:format>image/svg+xml</dc:format>
        <dc:type
           rdf:resource="http://purl.org/dc/dcmitype/StillImage" />
        <dc:title />
      </cc:Work>
    </rdf:RDF>
  </metadata>
  <g
     inkscape:label="Layer 1"
     inkscape:groupmode="layer"
     id="layer1">
    <g
       id="g4263">
      <path
         id="path4248"
         d="M 461.42773 369.51367 A 144.27716 144.27716 0 0 0 317.15234 513.79102 A 144.27716 144.27716 0 0 0 461.42773 658.06836 A 144.27716 144.27716 0 0 0 605.70508 513.79102 A 144.27716 144.27716 0 0 0 461.42773 369.51367 z M 461.11914 380.54883 C 527.81367 380.54882 581.88085 434.61406 581.88086 501.30859 C 581.88087 541.06706 562.66808 576.33899 533.01953 598.34375 C 528.49068 601.705 520.45951 600.71354 520.62695 590.04102 C 520.72225 583.96686 521.33523 571.45781 521.21875 558.07812 C 521.10506 545.0204 520.272 531.13493 519.62891 521.59375 C 519.2474 515.93347 518.05584 515.55108 515.23242 515.55859 C 512.409 515.56659 510.57176 516.81697 510.54297 521.73047 C 510.49257 530.33468 511.43902 543.16416 511.29102 556.29297 C 511.16013 567.90336 509.94025 579.63164 509.81055 590.57422 C 509.59217 608.99806 498.336 617.5691 492.56836 617.93359 C 482.52212 618.56846 472.47706 598.77244 471.51172 577.23047 C 470.40576 552.55073 467.6525 521.96114 463.66797 499.29883 C 463.42758 497.93161 460.37246 466.86485 462.33594 456.50195 C 462.9793 453.10639 465.70439 447.49976 458.54688 446.90234 C 452.02778 446.3582 454.17945 454.31351 453.22266 458.43164 C 451.01693 467.92531 453.30014 491.48773 454.74805 506.18555 C 456.84259 527.44713 459.04367 550.51013 460.36133 586.71484 C 460.59436 593.11775 461.22724 620.26174 442.17383 620.91797 C 435.96611 621.13177 430.05996 618.64475 424.43164 616.39648 C 414.42998 612.40124 412.92376 596.26466 412.91016 592.07227 C 412.89186 586.44191 410.07017 572.99086 405.98438 551.59375 C 402.50642 533.37978 401.50881 510.33038 401.89062 503.13281 C 402.11433 498.91555 401.74395 497.04057 397.70898 497.24414 C 393.67401 497.44772 393.50046 497.86956 393.49219 502.58594 C 393.47369 513.11121 395.28034 533.64668 397.79492 552.33008 C 400.3678 571.44657 403.65175 588.61201 403.83594 590.07227 C 404.50696 595.39221 396.04386 604.68727 386.66602 596.39453 C 359.82775 572.6617 340.35938 539.91324 340.35938 501.30859 C 340.35938 434.61407 394.42462 380.54883 461.11914 380.54883 z M 403.53125 608.28125 C 408.65905 607.98419 410.09342 615.38634 411.78516 620.93359 C 415.90924 634.45654 412.25248 635.90489 403.57227 634.50586 C 392.32398 632.69292 386.2169 629.33776 387.45898 622.54688 C 388.72167 615.64332 392.9846 614.3224 398.26758 610.55078 C 400.36897 609.05056 402.09547 608.36443 403.53125 608.28125 z M 518.21484 612.00586 C 523.14078 611.77997 532.83797 617.31904 532.85742 623.43359 C 532.86892 627.03862 532.72818 630.38856 521.42773 634.50586 C 516.79456 636.19395 507.5 636.33334 507.5 630.21875 C 507.5 624.10417 510.42658 612.36299 518.21484 612.00586 z M 470.60156 617.09766 C 477.04996 617.48445 482.48506 629.23339 484.28516 634.50586 C 487.58529 644.17194 478.04996 648.79102 470.35742 648.79102 C 462.66488 648.79102 453.57227 646.53057 453.57227 640.21875 C 453.57226 633.90692 460.87972 619.86134 468.57227 617.36133 C 469.25813 617.13843 469.93449 617.05764 470.60156 617.09766 z "
         style="opacity:1;fill:#000000;fill-opacity:1;stroke:#000000;stroke-width:0.11709452;stroke-miterlimit:4;stroke-dasharray:none;stroke-opacity:1"
         inkscape:export-xdpi="79.81382"
         inkscape:export-ydpi="79.81382" />
      <path
         sodipodi:nodetypes="sssssssssss"
         inkscape:connector-curvature="0"
         id="path4209"
         d="m 425.52675,498.54606 c 0.84637,5.4724 -7.01336,6.06091 -20.70812,6.06091 -0.48563,0 -3.73186,-1.06843 1.75423,-1.59317 3.51626,-0.33633 14.51824,-1.34096 14.59237,-2.71118 0.14789,-2.73369 -21.23411,-5.12155 -22.65996,-5.16004 -4.0146,-0.10838 -16.48086,-0.0665 -16.39507,3.28729 0.0437,1.70839 5.03248,3.33269 8.15007,4.38687 3.1176,1.05419 1.66148,1.84278 1.42364,1.81032 -7.4534,-1.01731 -11.45875,-4.29192 -12.62417,-7.34369 -5.27669,-13.81756 8.27891,-40.48529 21.46574,-40.15357 13.69304,0.34445 22.22805,23.48532 25.00127,41.41626 z"
         style="opacity:1;fill:#000000;fill-opacity:1;stroke:#000000;stroke-width:0.1;stroke-miterlimit:4;stroke-dasharray:none;stroke-opacity:1"
         inkscape:export-xdpi="79.81382"
         inkscape:export-ydpi="79.81382" />
      <path
         sodipodi:nodetypes="sssssssssssss"
         inkscape:connector-curvature="0"
         id="path4209-1"
         d="m 496.57469,455.5282 c -0.39638,6.78103 -4.68667,4.34013 -24.19376,4.34013 -5.74251,0 -10.11397,-3.54219 -0.0266,-3.78457 5.03003,-0.12086 17.64961,1.37291 17.7552,-1.33648 0.15186,-3.89666 -30.24629,-9.56808 -32.2773,-9.62291 -5.71847,-0.15438 -35.34495,-2.87262 -35.22275,1.90456 0.0623,2.43347 18.28003,6.76746 22.72079,8.26906 4.44077,1.50161 2.36665,2.62489 2.02786,2.57866 -10.61677,-1.44908 -29.45387,-3.3351 -29.8291,-12.31801 -0.13897,-3.32684 11.33018,-21.33152 22.85821,-36.45096 5.72227,-7.50499 14.69089,-10.71405 21.08023,-10.55333 6.69795,0.16849 15.6453,6.40023 20.48814,14.55822 5.04761,8.50294 14.99949,35.90812 14.6191,42.41563 z"
         style="opacity:1;fill:#000000;fill-opacity:1;stroke:#000000;stroke-width:0.14244199;stroke-miterlimit:4;stroke-dasharray:none;stroke-opacity:1"
         inkscape:export-xdpi="79.81382"
         inkscape:export-ydpi="79.81382" />
      <path
         sodipodi:nodetypes="sssssssssssss"
         inkscape:connector-curvature="0"
         id="path4209-6"
         d="m 548.26371,518.84668 c 0.13739,4.19673 -13.76959,4.51867 -22.13522,5.05438 -0.61834,0.0396 -6.72567,-2.07746 0.27388,-2.74696 4.4863,-0.42911 17.09486,-0.10375 17.01087,-2.74484 -0.11102,-3.49117 -20.48488,-4.74873 -28.55409,-4.97641 -5.12194,-0.14453 -30.49176,0.27234 -30.3823,3.47988 0.0744,2.17913 15.88508,3.00209 19.86273,4.34709 3.97766,1.34501 3.90556,3.42258 0.56638,3.02403 -9.53011,-1.13749 -25.47105,-3.59576 -25.57111,-7.76248 -0.15199,-6.32924 12.3886,-35.47992 19.38145,-42.94839 4.50982,-4.81655 11.21654,-7.76839 15.86324,-7.74675 6.08165,0.0283 16.46627,6.33051 21.03239,16.31168 6.88311,15.04589 12.49491,31.91748 12.65178,36.70877 z"
         style="opacity:1;fill:#000000;fill-opacity:1;stroke:#000000;stroke-width:0.1275873;stroke-miterlimit:4;stroke-dasharray:none;stroke-opacity:1"
         inkscape:export-xdpi="79.81382"
         inkscape:export-ydpi="79.81382" />
    </g>
  </g>
</svg>
