<?xml version="1.0" encoding="UTF-8" standalone="no"?>
<!-- Created with Inkscape (http://www.inkscape.org/) -->

<svg
   xmlns:dc="http://purl.org/dc/elements/1.1/"
   xmlns:cc="http://creativecommons.org/ns#"
   xmlns:rdf="http://www.w3.org/1999/02/22-rdf-syntax-ns#"
   xmlns:svg="http://www.w3.org/2000/svg"
   xmlns="http://www.w3.org/2000/svg"
   xmlns:sodipodi="http://sodipodi.sourceforge.net/DTD/sodipodi-0.dtd"
   xmlns:inkscape="http://www.inkscape.org/namespaces/inkscape"
   width="210mm"
   height="297mm"
   viewBox="0 0 744.09448819 1052.3622047"
   id="svg2"
   version="1.1"
   inkscape:version="0.91 r13725"
   inkscape:export-filename="/home/michal/server/ditup-node/public/img/logo-larger.png"
   inkscape:export-xdpi="90"
   inkscape:export-ydpi="90"
   sodipodi:docname="logo-larger.svg">
  <defs
     id="defs4" />
  <sodipodi:namedview
     id="base"
     pagecolor="#ffffff"
     bordercolor="#666666"
     borderopacity="1.0"
     inkscape:pageopacity="0.0"
     inkscape:pageshadow="2"
     inkscape:zoom="0.24748738"
     inkscape:cx="173.00626"
     inkscape:cy="910.58064"
     inkscape:document-units="px"
     inkscape:current-layer="layer1"
     showgrid="false"
     showguides="true"
     inkscape:guide-bbox="true"
     inkscape:window-width="1024"
     inkscape:window-height="571"
     inkscape:window-x="0"
     inkscape:window-y="0"
     inkscape:window-maximized="1">
    <sodipodi:guide
       position="331.33004,666.70069"
       orientation="1,0"
       id="guide4161" />
  </sodipodi:namedview>
  <metadata
     id="metadata7">
    <rdf:RDF>
      <cc:Work
         rdf:about="">
        <dc:format>image/svg+xml</dc:format>
        <dc:type
           rdf:resource="http://purl.org/dc/dcmitype/StillImage" />
        <dc:title></dc:title>
      </cc:Work>
    </rdf:RDF>
  </metadata>
  <g
     inkscape:label="Layer 1"
     inkscape:groupmode="layer"
     id="layer1"
     style="display:inline">
    <g
       id="g3381"
       style="fill:#000000;fill-opacity:1">
      <g
         id="g3375"
         style="fill:#000000;fill-opacity:1">
        <g
           id="g3370"
           style="fill:#000000;fill-opacity:1">
          <path
             sodipodi:nodetypes="ssssssssssszzcssssssss"
             inkscape:connector-curvature="0"
             id="path3336"
             d="m 330.98047,521.51758 c -95.46658,-1.5e-4 -172.85727,77.39084 -172.85742,172.85742 -1.2e-4,79.8756 54.17698,147.09748 127.78914,166.92349 14.36842,3.86986 29.4773,5.93395 45.06828,5.93393 95.46658,-1.5e-4 172.85757,-77.39084 172.85742,-172.85742 1.5e-4,-95.46658 -77.39084,-172.85757 -172.85742,-172.85742 z m -0.65977,16.48983 c 73.12812,0 143.62816,75.72472 142.618,147.81993 -0.92049,65.69541 -35.14211,94.18358 -87.34489,111.40752 -11.90039,3.92645 -29.71459,-25.79304 -32.57393,-38.26726 -4.69503,-20.48265 -6.0914,-24.29658 -9.18982,-63.68574 -3.09842,-39.38916 -10.3353,-34.42569 -12.00975,-34.67609 -1.67445,-0.25039 -12.87568,-2.25039 -14.66442,18.50193 -1.78874,20.75232 -9.64554,64.93183 -12.07537,81.9964 -1.92404,15.14694 -18.61053,40.62521 -35.42293,35.89516 -52.93544,-14.89301 -78.92636,-46.05328 -78.92638,-113.19223 -2e-5,-73.10535 66.46138,-145.79962 139.58949,-145.79962 z m 0.50391,246.66449 c 14.1176,0.50467 24.35568,26.64716 32.83086,44.44761 7.20801,15.13898 -16.44078,21.71773 -34.85116,21.71723 -18.40961,-5.8e-4 -31.39438,-4.03725 -27.77814,-21.71723 3.63071,-17.7508 15.1851,-44.97001 29.79844,-44.44761 z"
             style="fill:#000000;fill-opacity:1;fill-rule:evenodd;stroke:none;stroke-width:1px;stroke-linecap:butt;stroke-linejoin:miter;stroke-opacity:1" />
          <g
             transform="matrix(1.8564828,0,0,1.8564828,-286.89559,-489.51457)"
             id="g4194"
             style="fill:#000000;fill-opacity:1;stroke:none">
            <path
               style="opacity:1;fill:#000000;fill-opacity:1;stroke:none;stroke-width:1;stroke-miterlimit:4;stroke-dasharray:none;stroke-opacity:1"
               d="m 373.98819,642.27929 c 0.50508,15.40861 -25.64962,16.90022 -24.02816,22.06472 1.62146,5.1645 39.7146,-4.55721 36.61964,-26.67689 -3.09496,-22.11969 -50.94006,-80.27969 -55.75472,-80.27969 -4.86758,0 -50.01016,65.15565 -52.15889,79.35286 -2.14874,14.19721 7.42165,19.14125 13.15432,22.51206 10.2214,6.01019 19.76211,8.34881 20.85731,5.31694 1.0952,-3.03187 -21.3633,-11.62316 -21.3633,-21.90205 0,-13.66835 13.56859,-25.68081 39.51056,-25.68081 25.94197,0 42.65816,9.88425 43.16324,25.29286 z"
               id="path4172"
               inkscape:connector-curvature="0"
               sodipodi:nodetypes="zzzszszszz" />
          </g>
        </g>
      </g>
    </g>
  </g>
</svg>
