<?xml version="1.0" encoding="UTF-8" standalone="no"?>
<!-- Created with Inkscape (http://www.inkscape.org/) -->

<svg
   xmlns:dc="http://purl.org/dc/elements/1.1/"
   xmlns:cc="http://creativecommons.org/ns#"
   xmlns:rdf="http://www.w3.org/1999/02/22-rdf-syntax-ns#"
   xmlns:svg="http://www.w3.org/2000/svg"
   xmlns="http://www.w3.org/2000/svg"
   xmlns:sodipodi="http://sodipodi.sourceforge.net/DTD/sodipodi-0.dtd"
   xmlns:inkscape="http://www.inkscape.org/namespaces/inkscape"
   width="210mm"
   height="297mm"
   viewBox="0 0 744.09448819 1052.3622047"
   id="svg2"
   version="1.1"
   inkscape:version="0.91 r13725"
   inkscape:export-filename="/home/michal/server/ditup-node/public/img/logo.png"
   inkscape:export-xdpi="90"
   inkscape:export-ydpi="90"
   sodipodi:docname="logo.svg">
  <defs
     id="defs4" />
  <sodipodi:namedview
     id="base"
     pagecolor="#ffffff"
     bordercolor="#666666"
     borderopacity="1.0"
     inkscape:pageopacity="0.0"
     inkscape:pageshadow="2"
     inkscape:zoom="0.49497475"
     inkscape:cx="251.9055"
     inkscape:cy="359.22753"
     inkscape:document-units="px"
     inkscape:current-layer="layer1"
     showgrid="false"
     showguides="true"
     inkscape:guide-bbox="true"
     inkscape:window-width="1024"
     inkscape:window-height="571"
     inkscape:window-x="0"
     inkscape:window-y="0"
     inkscape:window-maximized="1">
    <sodipodi:guide
       position="331.33004,666.70069"
       orientation="1,0"
       id="guide4161" />
  </sodipodi:namedview>
  <metadata
     id="metadata7">
    <rdf:RDF>
      <cc:Work
         rdf:about="">
        <dc:format>image/svg+xml</dc:format>
        <dc:type
           rdf:resource="http://purl.org/dc/dcmitype/StillImage" />
        <dc:title></dc:title>
      </cc:Work>
    </rdf:RDF>
  </metadata>
  <g
     inkscape:label="Layer 1"
     inkscape:groupmode="layer"
     id="layer1"
     style="display:inline">
    <g
       id="g4197"
       style="fill:#000000;fill-opacity:1;stroke:none">
      <path
         sodipodi:nodetypes="ssssssssssccsccsssssssss"
         inkscape:connector-curvature="0"
         id="path3336"
         d="m 330.98047,521.51758 c -95.46658,-1.5e-4 -172.85727,77.39084 -172.85742,172.85742 -1.2e-4,79.8756 54.17698,147.09748 127.78914,166.92349 14.36842,3.86986 29.4773,5.93395 45.06828,5.93393 95.46658,-1.5e-4 172.85757,-77.39084 172.85742,-172.85742 1.5e-4,-95.46658 -77.39084,-172.85757 -172.85742,-172.85742 z m -1.66992,12.44922 c 83.22964,0 150.69923,66.63335 150.69922,148.83008 0,65.70186 -32.58823,105.81691 -92.39565,125.54966 -7.03206,2.32015 -12.41074,-6.8288 -18.39314,-16.53376 -5.98239,-9.70496 -21.88026,-13.94544 -24.78739,-24.76395 -0.52191,-40.36653 -1.86407,-41.39708 -5.65429,-119.24414 -0.38628,-5.98132 -3.57294,-10.91257 -6.95899,-10.9375 -3.38605,-0.0249 -5.14696,3.7513 -6.07812,10.92578 -6.68652,65.13505 -0.15443,76.30603 -6.51953,120.88727 -1.52418,8.735 -17.15797,11.81568 -25.16435,24.51674 -7.625,12.09607 -14.60379,20.47796 -21.37026,18.4495 -61.84912,-18.54119 -94.07867,-61.71065 -94.07867,-128.8496 -2e-5,-82.19673 67.47153,-148.83008 150.70117,-148.83008 z m 3.02929,255.75586 c 18.41113,-5e-4 33.33644,14.9248 33.33594,33.33593 -5.8e-4,18.41038 -14.92556,33.33449 -33.33594,33.33399 -18.40961,-5.8e-4 -33.3334,-14.92438 -33.33398,-33.33399 -5e-4,-18.41037 14.92361,-33.33535 33.33398,-33.33593 z"
         style="fill:#000000;fill-opacity:1;fill-rule:evenodd;stroke:none;stroke-width:1px;stroke-linecap:butt;stroke-linejoin:miter;stroke-opacity:1" />
      <g
         id="g4194"
         style="fill:#000000;fill-opacity:1;stroke:none">
        <path
           style="opacity:1;fill:#000000;fill-opacity:1;stroke:none;stroke-width:1;stroke-miterlimit:4;stroke-dasharray:none;stroke-opacity:1"
           d="m 377.79704,641.73517 c 0.50508,15.40861 -29.45847,17.44434 -27.83701,22.60884 1.62146,5.1645 39.7146,-4.55721 36.61964,-26.67689 -3.09496,-22.11969 -50.94006,-80.27969 -55.75472,-80.27969 -4.86758,0 -50.01016,65.15565 -52.15889,79.35286 -2.14874,14.19721 7.42165,19.14125 13.15432,22.51206 10.2214,6.01019 19.76211,8.34881 20.85731,5.31694 1.0952,-3.03187 -26.80452,-10.53492 -26.80452,-20.81381 0,-13.66835 19.00981,-26.76905 44.95178,-26.76905 25.94197,0 46.46701,9.34013 46.97209,24.74874 z"
           id="path4172"
           inkscape:connector-curvature="0"
           sodipodi:nodetypes="zzzszszszz" />
      </g>
    </g>
  </g>
</svg>
